<?xml version="1.0" encoding="UTF-8"?>
<svg id="Layer_2" data-name="Layer 2" xmlns="http://www.w3.org/2000/svg" viewBox="0 0 158.2 146.74">
  <defs>
    <style>
      .cls-1 {
        fill: none;
        stroke: #9dd4b7;
        stroke-miterlimit: 10;
        stroke-width: 4px;
      }
    </style>
  </defs>
  <g id="terrain">
    <g>
      <path class="cls-1" d="m5,116.37l7.75-7.63c1.5-1.47,2.28-3.51,2.19-5.61-.26-6.09.48-19.7,10.82-29.5,13.7-13,35.14-51.82,53.93-52.88s45.32-27.71,60.96-15.61,18.45,30.02,13,39.85-13.7.85-19.32,9.47-16.86,54.12-29.69,65.19-59.2,30.39-81.86,23.72C1.48,137.1.35,129.58,3.06,119.66c.34-1.25,1.02-2.38,1.94-3.29Z"/>
      <path class="cls-1" d="m122.85,28.14l-7.18,21.36c-.43,1.28-.51,2.64-.23,3.96l.8,3.79c.4,1.89-.17,3.86-1.52,5.25-6.51,6.69-25.88,26.81-32.04,35.47-7.44,10.47-9.73,20.26-26.52,29.54-9.89,5.46-9.67,8.59-21.63,1.16-11.27-7-3.26-13,.93-23.83,2.68-6.94,9.56-9.95,14.15-11.21,2.66-.73,4.51-3.14,4.61-5.9l.21-5.73c.38-1.91,1.22-3.7,2.46-5.21,8.38-10.15,42.59-50.11,63.55-51.74,1.67-.13,2.94,1.49,2.41,3.08Z"/>
      <path class="cls-1" d="m84.74,66.79l-9.23,7.69c-1.94,1.28-3.3,3.26-3.79,5.53l-.74,3.45c-.64,3,2.48,5.4,5.21,4.02l7.78-3.94c2.22-1.12,3.67-3.34,3.82-5.82l1.07-8.55c.13-2.19-2.29-3.59-4.12-2.39Z"/>
    </g>
  </g>
</svg>