<?xml version="1.0" encoding="UTF-8"?>
<svg id="Layer_2" data-name="Layer 2" xmlns="http://www.w3.org/2000/svg" viewBox="0 0 153.68 398.58">
  <defs>
    <style>
      .cls-1 {
        fill: none;
        stroke: #9dd4b7;
        stroke-miterlimit: 10;
        stroke-width: 4px;
      }
    </style>
  </defs>
  <g id="terrain">
    <g>
      <path class="cls-1" d="m103.6,2c-6.62-.04-12.91,2.84-17.25,7.83l-13.67,15.74c-19.45,21-9.81,35.06-37.65,66.76-12.04,13.71.86,48.88,13.51,62.02,8.3,8.63,7.75,44.51,2.76,55.13-14.75,31.41-6.82,25.71-34.94,51.63-27.01,24.89-8.6,91.39-3.5,105.36,11.77,32.2,39.74,33.23,48.2,27.3,23.66-16.6,51.26-47.25,59.15-58.58,15.78-22.64,18.78-50.33,6.34-131.22-2.34-15.19,32.42-81.19,23.71-105.58s-12.26-79.34-29.38-91.41c-5.47-3.85-11.88-4.95-17.29-4.99Z"/>
      <path class="cls-1" d="m38.49,350.76c-6.83-2.01-12.24-7.25-14.45-14.02-3.51-10.7-6.87-28.48.8-45.93,12.13-27.57,45.76-48.79,54.03-77.46s-29.5-75.53-15.99-116.05,12.68-52.38,39.97-51.27,29.22,72.78,23.98,92.35-18.75,67.81-16.26,78.29,13.23,92.35-15.71,121.29c-19.55,19.55-43.12,16.72-56.37,12.82Z"/>
      <path class="cls-1" d="m93.21,79.92c17.01-6.06,26.46,19.3,23.16,41.9s-12.13,29.22-23.16,29.77-21.97-26.71-18.53-35.84c7.78-20.67-1.59-28.67,18.53-35.84Z"/>
      <path class="cls-1" d="m47.15,320.55c-2.26-5.46-2.46-11.54-.82-17.22,3.94-13.66,15.08-45.28,34.48-48.08,24.81-3.58,13.7,26.71,11.3,33.63-6.89,19.85-4.96,41.9-19.3,47.69-10.78,4.35-21.09-5.01-25.66-16.02Z"/>
    </g>
  </g>
</svg>