<?xml version="1.0" encoding="UTF-8"?>
<svg id="Layer_2" data-name="Layer 2" xmlns="http://www.w3.org/2000/svg" viewBox="0 0 242.55 200.18">
  <defs>
    <style>
      .cls-1 {
        fill: none;
        stroke: #9dd4b7;
        stroke-miterlimit: 10;
        stroke-width: 4px;
      }
    </style>
  </defs>
  <g id="terrain">
    <g>
      <path class="cls-1" d="m20.52,41.53C-9.32,35.43-5.09,6.81,47.85,2.27c54.81-4.7,245.1,51.55,178.88,155.03-53.22,83.16-70.51,23.12-49.82-35.83,12.52-35.66-110.18-70.5-156.39-79.94Z"/>
      <path class="cls-1" d="m159.9,38.39c-32.57-14.45-81.34-21.26-106-20.41s-30.12-.2-27.21,12.25c3.42,14.61,111.26,8.25,129.24,40.47,22.9,41.05,36.28,5.1,39.96,46.2s-11.03,46.52,0,56.68,34.86-40.24,30.89-65.75-37.33-56.32-66.89-69.44Z"/>
      <path class="cls-1" d="m176.32,57.82c-11.15-5.67-18.29-3.43-12.69,5.62,13.19,21.3,7.97,27.27,26.07,23.58,16.51-3.37-4.36-24.61-13.38-29.2Z"/>
    </g>
  </g>
</svg>