<?xml version="1.0" encoding="UTF-8"?>
<svg id="Layer_2" data-name="Layer 2" xmlns="http://www.w3.org/2000/svg" viewBox="0 0 214 318.41">
  <defs>
    <style>
      .cls-1 {
        fill: none;
        stroke: #9dd4b7;
        stroke-miterlimit: 10;
        stroke-width: 4px;
      }
    </style>
  </defs>
  <g id="terrain">
    <g>
      <path class="cls-1" d="m57.85,203.91c-3.44,4.82-7.7,8.99-12.53,12.43-21.96,15.64-90.7,71.46,10.1,94.94,117.82,27.45,149.95-62.26,155.31-99.07S206.05,2.67,150.48,2c-53.44-.64-41.24,129.98-92.63,201.91Z"/>
      <path class="cls-1" d="m142,23.81c23.76-7.5,51.81,65.27,52.91,132.69,1.12,68.46-23.23,109.25-76.11,127.33s-74.84-8.11-69.49-38.23,57.42-69.42,55.54-107.33c-1.22-24.66,11.71-106.42,37.15-114.46Z"/>
      <path class="cls-1" d="m123.98,98.43c8.94-4.89,6.94,8.9,20.1-3.87s15.87,71.24,10.45,89.43-38.05,55.55-55.75,36.39c-20.81-22.52,43.59-82.93,30.81-97.64s-18.36-17.34-5.62-24.31Z"/>
    </g>
  </g>
</svg>