<?xml version="1.0" encoding="UTF-8"?>
<svg id="Layer_2" data-name="Layer 2" xmlns="http://www.w3.org/2000/svg" viewBox="0 0 338.85 322.06">
  <defs>
    <style>
      .cls-1 {
        fill: none;
        stroke: #9dd4b7;
        stroke-miterlimit: 10;
        stroke-width: 4px;
      }
    </style>
  </defs>
  <g id="terrain">
    <g>
      <path class="cls-1" d="m65.29,12.22c3.17,1.66,11.88,5.75,13.89,15.96,1.19,6.07,11.65-1.54,30.46,1.67,26.52,4.54,137.73-16.63,180.65,7.97,29.08,16.67,6.81,61.97-13.49,97.53-8.11,14.21.4,38.61,5.04,55.46,6.81,24.72,64.05,21.91,53.79,63.92-10.27,42.01-14.54,64.3-78.7,65.16-64.16.86-220.7,1.49-229.26-83.27C19.26,153.34-43.64-45.06,65.29,12.22Z"/>
      <path class="cls-1" d="m55.59,30.74c2.28,1.26,4.44,2.72,6.48,4.33,6.63,5.23,26.5,19.85,45.05,23.03,22.69,3.88,123.43-27.38,150.09,5.51,24.48,30.19-4,97.31-2.73,136.89.7,21.93,56.14,11.15,47.36,47.1s-12.44,55.02-67.35,55.76c-54.9.73-188.86,1.28-196.18-71.26S-17.08-9.46,55.59,30.74Z"/>
      <path class="cls-1" d="m43.12,119.94c-2.66-58.6,28.22-57.06,43.16-52.08s102.91,1.66,120.33,37.34-49.79,57.88-25.73,77.07,47.3-.72,53.94,27.49-24.07,39.83-39,70.54-120.33-4.36-132.78-39.11-19.92-121.26-19.92-121.26Z"/>
      <path class="cls-1" d="m90.93,193.52c-26.86-42.1,15.11-59.31,27.18-57.27,16.87,2.85,8.7,20.14,26.77,13.24,13.32-5.08,18.38,45.97,6.64,50.62-25.47,10.09-33.81,35.36-60.58-6.6Z"/>
      <path class="cls-1" d="m112.6,161.29c-6.6,4.66-16.35,29.26-2.07,30.8s29.16-4.2,26.11-13.86c-3.05-9.66-19.28-20.3-24.04-16.94Z"/>
    </g>
  </g>
</svg>