<?xml version="1.0" encoding="UTF-8"?>
<svg id="Layer_2" data-name="Layer 2" xmlns="http://www.w3.org/2000/svg" viewBox="0 0 693.84 1049.88">
  <defs>
    <style>
      .cls-1 {
        fill: none;
        stroke: #9dd4b7;
        stroke-miterlimit: 10;
        stroke-width: 4px;
      }
    </style>
  </defs>
  <g id="terrain">
    <g>
      <path class="cls-1" d="m504.39,276.17s437.25,536.62-23.85,731.4S-57.41,633.41,37.99,534.95s144.42-269.38,115.27-315.76,15.9-310.05,170.92-182.85,128.99,174.9,180.2,239.82Z"/>
      <path class="cls-1" d="m415.68,292.15c18.7,31.86,42.25,60.61,69.91,85.09,78.85,69.79,232.59,254.57,42.65,519.27-245.12,341.61-500.85-26.74-471.7-213.57s213.32-307.4,176.22-412.07-37.1-136.47-22.52-180.2c13.31-39.92,100.61,22.87,205.44,201.48Z"/>
      <path class="cls-1" d="m119.92,635.7c-7.25,10.87-9.68,24.26-6.86,37.02,25.45,114.96,150.27,575.3,465.05,38.49,14.45-24.64,34.45-142.83-50.93-222.82-116.63-109.26-240.44-331.77-270.51-329.82-69.97,4.55,78.26,270.07-25.34,315.53-110.69,48.58-77.6,110.84-111.42,161.59Z"/>
      <path class="cls-1" d="m182.27,620.64c3.23-20.22,9.88-39.77,19.95-57.61,19.34-34.27,21.32-80.35,97.35-92.23,139.31-21.76-39.31-164.87-17.74-199.02s103.68,78.74,128.84,113.79,228.85,249.73,71.57,378.48-141.38,199.75-214.79,132.46c-102.18-93.66-96.63-204.11-85.18-275.87Z"/>
      <path class="cls-1" d="m276.49,817.49c-2.74-13.51-140.57-208.16,47.53-313.93s180.74,94.39,156.64,160.66-174.04,301.86-204.17,153.27Z"/>
      <path class="cls-1" d="m295.23,579.2c79.95-53.3,121.83-128.53,137.9-50.21s21.42,180.07-50.87,245-102.42,12.05-116.48-48.87,5.03-129.65,29.45-145.93Z"/>
      <path class="cls-1" d="m302.6,656.18c44.81-102.4,24.1-89.09,83.01-98.43s35.48,132.57,13.39,153.33-151.93,72.02-96.39-54.89Z"/>
      <path class="cls-1" d="m326.03,660.49c35.08-65.39,22.76-63.88,48.2-76.6s32.8,96.39,19.41,102.42-109.78,52.8-67.61-25.82Z"/>
      <path class="cls-1" d="m342.53,666.98c.99-1.65,2.14-3.21,3.42-4.65,27.07-30.65,46.42-14.87,40.8,2.01-5.75,17.24-25.29,34.96-42.53,29.74-13.76-4.17-5.56-20.62-1.68-27.1Z"/>
    </g>
  </g>
</svg>