<?xml version="1.0" encoding="UTF-8"?>
<svg id="Layer_2" data-name="Layer 2" xmlns="http://www.w3.org/2000/svg" viewBox="0 0 212.14 176.27">
  <defs>
    <style>
      .cls-1 {
        fill: none;
        stroke: #9dd4b7;
        stroke-miterlimit: 10;
        stroke-width: 4px;
      }
    </style>
  </defs>
  <g id="terrain">
    <g>
      <path class="cls-1" d="m34.82,51.06c.29-2.87,1.8-5.47,4.15-7.13,12.03-8.52,51.03-34.16,73.95-26.76,27.35,8.84,16.42-15.99,37.45-15.15s34.07,1.74,40.8,5.11,16.58,16.02,18.1,21.84c2.8,10.74-.82,43.46-15.15,61.83-15.18,19.46-57.53,63.11-73.15,69s-68.46,20.47-105.24,11.78c-14.17-3.35-16.51-17.96-10.94-20.2,8.41-3.38,56.72-24.89,55.12-42.49-2.05-22.44-11.83-22.18-20.26-32.08-7.45-8.76-6.13-12.93-4.83-25.75Z"/>
      <path class="cls-1" d="m139.52,28.28c-11.38-5.9-26,5.3-37.1,17.72s-16.56,17.22-20.04,24.51-6.46,27.82-.99,50.85-21.03,24.18-24.84,36.93,16.56,6.62,29.98,2.98,23.02-18.05,30.97-24.68,28.98-16.4,36.6-28.49,19.54-31.63,21.86-39.58-5.96-6.14-2.15-12.59,6.23-10.95-6.96-19.54c-7.12-4.64-6.79-14.57-15.07-11.86-5.95,1.95-7.78,6.06-12.26,3.75Z"/>
      <path class="cls-1" d="m90.89,99.37c.35-3.33,1.64-6.49,3.88-8.97l36.92-40.8c.68-.82,1.87-.99,2.76-.39l1.9,1.29c.93.63,1.19,1.9.58,2.84l-1.52,2.36c-.57.88-.39,2.05.41,2.72,2.68,2.24,8.22,7.27,8.34,10.78.17,4.64-13.08,32.13-14.74,35.77s-20.37,28.82-32.96,16.73c-10.23-9.82-6.22-16.1-5.57-22.32Z"/>
    </g>
  </g>
</svg>